<svg xmlns="http://www.w3.org/2000/svg" viewBox="0 0 1920 1200" role="img" aria-labelledby="title desc">
<title id="title">trilogy-battle</title><desc id="desc">Atmospheric epic fantasy background artwork for the D.J. O'Brien author website.</desc>
<defs>
 <linearGradient id="sky" x1="0" y1="0" x2="0" y2="1"><stop stop-color="#27181a"/><stop offset=".58" stop-color="#7a3422"/><stop offset="1" stop-color="#090807"/></linearGradient>
 <radialGradient id="glow" cx="72%" cy="22%" r="48%"><stop stop-color="#ef7b38" stop-opacity=".56"/><stop offset="1" stop-color="#ef7b38" stop-opacity="0"/></radialGradient>
 <linearGradient id="fog" x1="0" y1="0" x2="1" y2="0"><stop stop-color="#e8dfc6" stop-opacity="0"/><stop offset=".5" stop-color="#e8dfc6" stop-opacity=".22"/><stop offset="1" stop-color="#e8dfc6" stop-opacity="0"/></linearGradient>
 <filter id="blur"><feGaussianBlur stdDeviation="18"/></filter>
</defs>
<rect width="1920" height="1200" fill="url(#sky)"/>
<rect width="1920" height="1200" fill="url(#glow)"/>
<circle cx="1510" cy="210" r="88" fill="#f3d995" opacity=".58"/>
<g opacity=".52" fill="#20150f"><path d="M0 690L180 470l140 170 170-260 210 300 210-230 190 235 160-180 180 190 180-250 340 325v330H0z"/></g>
<g opacity=".8" fill="#120d0a"><path d="M0 820l220-210 190 145 240-270 270 285 180-160 230 190 230-220 380 270v360H0z"/></g>
<g fill="#090807" opacity=".96"><path d="M180 950l18-120 18 120z"/><circle cx="198" cy="820" r="13"/><path d="M250 950l18-120 18 120z"/><circle cx="268" cy="820" r="13"/><path d="M320 950l18-120 18 120z"/><circle cx="338" cy="820" r="13"/><path d="M390 950l18-120 18 120z"/><circle cx="408" cy="820" r="13"/><path d="M460 950l18-120 18 120z"/><circle cx="478" cy="820" r="13"/><path d="M530 950l18-120 18 120z"/><circle cx="548" cy="820" r="13"/><path d="M600 950l18-120 18 120z"/><circle cx="618" cy="820" r="13"/><path d="M670 950l18-120 18 120z"/><circle cx="688" cy="820" r="13"/><path d="M740 950l18-120 18 120z"/><circle cx="758" cy="820" r="13"/><path d="M810 950l18-120 18 120z"/><circle cx="828" cy="820" r="13"/><path d="M880 950l18-120 18 120z"/><circle cx="898" cy="820" r="13"/><path d="M950 950l18-120 18 120z"/><circle cx="968" cy="820" r="13"/><path d="M1020 950l18-120 18 120z"/><circle cx="1038" cy="820" r="13"/><path d="M1090 950l18-120 18 120z"/><circle cx="1108" cy="820" r="13"/><path d="M1160 950l18-120 18 120z"/><circle cx="1178" cy="820" r="13"/><path d="M1230 950l18-120 18 120z"/><circle cx="1248" cy="820" r="13"/><path d="M1300 950l18-120 18 120z"/><circle cx="1318" cy="820" r="13"/><path d="M1370 950l18-120 18 120z"/><circle cx="1388" cy="820" r="13"/><path d="M1440 950l18-120 18 120z"/><circle cx="1458" cy="820" r="13"/><path d="M1510 950l18-120 18 120z"/><circle cx="1528" cy="820" r="13"/><path d="M1580 950l18-120 18 120z"/><circle cx="1598" cy="820" r="13"/><path d="M1650 950l18-120 18 120z"/><circle cx="1668" cy="820" r="13"/><path d="M1720 950l18-120 18 120z"/><circle cx="1738" cy="820" r="13"/></g><g stroke="#d3682c" stroke-width="7" fill="none" opacity=".7"><path d="M340 850q120-130 240 0"/><path d="M980 730q130-170 280-15"/></g><path d="M1260 390q170-115 300 20-95-22-138 36 52 24 86 78-120-54-248-134z" fill="#0a0807"/>
<path d="M0 940C360 860 590 1010 900 930s570-120 1020 12v258H0z" fill="#0a0807" opacity=".96"/>
<g filter="url(#blur)" opacity=".62"><ellipse cx="520" cy="855" rx="520" ry="55" fill="url(#fog)"/><ellipse cx="1390" cy="740" rx="430" ry="42" fill="url(#fog)"/></g>
</svg>